# xmcd
#
# Track frame offsets:
#	150
#	18152
#	39240
#	57142
#	72235
#	88895
#	105967
#	121892
#	140967
#	158962
#	179985
#	197867
#	212957
#	229617
#	246680
#	262595
#	293077
#
# Disc length: 3920 seconds
#
# Revision: 1
# Processed by: cddbd v1.5.1PL0 Copyright (c) Steve Scherf et al.
# Submitted via: audiograbber 1.80
#
DISCID=fb0f4e11
DTITLE=Karaoke - Alison Krauss Vol. 1
DYEAR=1900
DGENRE=
TTITLE0=Baby, Now That I've Found You
TTITLE1=When You Say Nothing At All
TTITLE2=Maybe (Radio Version)
TTITLE3=The Lucky One
TTITLE4=Two Highways
TTITLE5=Find My Way Back To My Heart
TTITLE6=Let Me Touch You For A While
TTITLE7=Somewhere In The Vicinity Of The Heart
TTITLE8=Baby, Now That I've Found You (demo)
TTITLE9=When You Say Nothing At All (demo)
TTITLE10=Maybe (Radio Version) (demo)
TTITLE11=The Lucky One (demo)
TTITLE12=Two Highways (demo)
TTITLE13=Find My Way Back To My Heart (demo)
TTITLE14=Let Me Touch You For A While (demo)
TTITLE15=Somewhere In The Vicinity Of The Heart (demo)
TTITLE16=Data Track
EXTD=
EXTT0=
EXTT1=
EXTT2=
EXTT3=
EXTT4=
EXTT5=
EXTT6=
EXTT7=
EXTT8=
EXTT9=
EXTT10=
EXTT11=
EXTT12=
EXTT13=
EXTT14=
EXTT15=
EXTT16=
PLAYORDER=
